<svg width="32" height="32" viewBox="0 0 251 250" fill="none" xmlns="http://www.w3.org/2000/svg">
<path d="M0 86.0837H83.3739C95.9587 86.0837 106.865 87.4121 116.094 90.0689C125.323 92.6557 132.979 96.4311 139.061 101.395C145.144 106.359 149.654 112.407 152.59 119.538C155.596 126.669 157.1 134.745 157.1 143.764C157.1 149.846 156.365 155.649 154.897 161.173C153.429 166.626 151.157 171.66 148.081 176.274C145.074 180.889 141.264 185.014 136.649 188.649C132.035 192.215 126.617 195.186 120.394 197.564L156.051 250H115.36L84.5275 203.436H83.5837L33.2447 203.332V250H0V86.0837ZM84.2129 174.596C90.5053 174.596 95.9936 173.862 100.678 172.394C105.432 170.926 109.382 168.863 112.529 166.207C115.745 163.55 118.122 160.334 119.66 156.558C121.268 152.713 122.072 148.448 122.072 143.764C122.072 134.605 118.926 127.543 112.633 122.579C106.341 117.546 96.8676 115.029 84.2129 115.029H33.2447V174.596H84.2129Z" fill="white"/>
<path d="M235.718 23C235.718 26.3137 233.032 29 229.718 29C226.405 29 223.718 26.3137 223.718 23C223.718 19.6863 226.405 17 229.718 17C233.032 17 235.718 19.6863 235.718 23Z" fill="white" fill-opacity="0.8"/>
</svg>
